<svg xmlns="http://www.w3.org/2000/svg" width="500" height="500" viewBox="1798 1798 500 500" xmlns:v="https://vecta.io/nano"><g transform="matrix(2.707746 0 0 2.707746 398.71209 325.62953)"><path d="M562.86 610.472l-9.008 32.9h-5.227l-6.366-23.902-6.468 23.902h-5.24l-8.994-32.9h5.183l6.4 23.9 6.454-23.9h5.14l6.512 23.9 6.4-23.9h5.197zm2.393.088l5.184-.423v8.06l-.088 3.022h.2c2.4-.9 4.336-1.314 6.7-1.314 4.2 0 7.024 1.884 7.024 9.096v14.382h-5.184v-13.96c0-4.336-2.117-4.906-4.526-4.906-1.504 0-2.8.336-4.103.7v18.164h-5.184l-.014-32.823zm26.12.336c2.687 0 3.1 1.562 3.1 3.3s-.57 3.344-3.1 3.344-3.066-1.606-3.066-3.344.482-3.3 3.066-3.3zm-2.584 9.33h5.183v23.157H588.8v-23.157zm9.564 0h3.534l.7 1.883h.336c1.373-1.183 3.533-2.22 6.365-2.22l1.08.044v5.096c-.95-.146-1.927-.277-2.92-.277-1.416 0-2.54.336-3.913.95v17.682h-5.183v-23.158zm14.236 23.157V610.56l5.184-.423v33.246H612.6zm42.065-23.478c7.36 0 10.192 4.336 10.192 12.03 0 7.213-2.643 11.93-10.28 11.93s-10.323-4.716-10.323-11.93c-.015-7.695 3.05-12.03 10.4-12.03h0zm4.906 12.017c0-4.38-.714-7.972-4.862-7.972-4.2 0-5.24 3.446-5.24 7.972 0 4.2.846 7.826 4.993 7.826 4.16-.001 5.1-3.432 5.1-7.826zm18.353-12.017c7.358 0 10.2 4.336 10.2 12.03 0 7.213-2.643 11.93-10.278 11.93s-10.324-4.716-10.324-11.93c-.014-7.695 3.053-12.03 10.4-12.03zm4.907 12.017c0-4.38-.717-7.972-4.863-7.972-4.2 0-5.242 3.446-5.242 7.972 0 4.2.848 7.826 4.994 7.826 4.162-.001 5.1-3.432 5.1-7.826h0zm8.643 11.46V610.56l5.183-.423v33.246h-5.183zm-69.444-23.157h3.913l.423 1.694c1.564-.847 4.44-2.03 7.024-2.03 4.716 0 8.162 3.446 8.162 11.695 0 8.118-3.635 12.12-9.666 12.12-2.22 0-4.672-.468-4.672-.468v10.615l-5.184.57v-34.196zm5.2 18.865c1.46.044 2.263.087 3.767.087 3.212 0 5.33-1.694 5.33-8.44 0-4.614-1.883-5.84-5.285-5.84-1.315 0-2.542.234-3.825.657V639.1h.014z"/><path fill="#eeb111" d="M647.705 606.005c-3.884-4.497-16.193-.54-29.917 8.965v2.395c12.09-8.6 22.762-12.572 25.815-9.024 3.8 4.424-5.68 18.864-21.187 32.268-15.52 13.374-31.202 20.645-35.013 16.22-1.986-2.292-.365-7.3 3.81-13.447H588.8c-5.17 7.71-7.11 14.192-4.453 17.272 4.848 5.607 22.953-2.058 40.46-17.17 17.477-15.082 27.756-31.873 22.91-37.48z"/></g><path fill="#19839b" stroke="#000" stroke-miterlimit="10" d="M2423.037 1968.952H2673.1v250.074h-250.073z"/></svg>