<svg xmlns="http://www.w3.org/2000/svg" height="640" viewBox="-104 0 480 480" width="640" xmlns:v="https://vecta.io/nano"><path d="M248 0H24C10.746 0 0 10.746 0 24v432c0 13.254 10.746 24 24 24h224c13.254 0 24-10.746 24-24V24c0-13.254-10.746-24-24-24zM16 24a8 8 0 0 1 8-8h224a8 8 0 0 1 8 8v136H104v-24a8 8 0 0 0-8-8H32a8 8 0 0 0-8 8v24h-8zm72 136H40v-16h48zm-72 48h16v48H16zm240 248a8 8 0 0 1-8 8H24a8 8 0 0 1-8-8V272h24a8 8 0 0 0 8-8v-64a8 8 0 0 0-8-8H16v-16h240zM152 288h80a8 8 0 0 0 8-8v-80a8 8 0 0 0-8-8h-80a8 8 0 0 0-8 8v80a8 8 0 0 0 8 8zm8-80h64v64h-64zm0 0"/><path d="M176 232h16a8 8 0 1 0 0-16h-16a8 8 0 1 0 0 16zm32 16h-32a8 8 0 1 0 0 16h32a8 8 0 1 0 0-16zm0 0"/></svg>