<svg xmlns="http://www.w3.org/2000/svg" width="500" height="500" viewBox="-182 -238 500 500" xmlns:v="https://vecta.io/nano"><path fill="#1428a0" d="M223.47 31.463h-.368l-15.595-54.25h-25.158v68.392h16.67l-.94-56.123h.364l16.75 56.123h24.14v-68.396h-16.776l.916 54.255zM-96.597-22.792l-12.55 69.115h18.313l9.28-62.734h.387l9.034 62.738h18.207l-12.493-69.12h-30.178zm102.44.007L-2.528 30.06h-.38l-8.332-52.845h-27.648l-1.5 69.108h16.95l.423-62.15h.384l11.323 62.15H5.89l11.324-62.13.377-.02.44 62.15h16.96l-1.497-69.108H5.844zm-156.99 17.773c-.32-1.412-.242-2.827-.072-3.607.49-2.22 1.955-4.652 6.198-4.652 3.98 0 6.293 2.5 6.293 6.258v4.27h16.927v-4.824c0-15.078-13.263-17.43-22.866-17.43-12.05 0-21.888 4.08-23.7 15.355-.495 3.03-.557 5.805.165 9.304 2.942 14.125 27.025 18.217 30.52 27.148.656 1.666.444 3.826.12 5.13-.547 2.264-2.072 4.616-6.598 4.616-4.232 0-6.816-2.476-6.816-6.244l-.01-6.71h-18.176l-.01 5.348c0 15.414 11.897 20.047 24.64 20.047 12.282 0 22.35-4.234 23.977-15.77.828-5.983.22-9.908-.074-11.368-2.868-14.48-28.582-18.76-30.516-26.873zM69.4-4.85a8.72 8.72 0 0 1-.082-3.542c.477-2.208 1.93-4.614 6.135-4.614 3.928 0 6.237 2.473 6.237 6.172v4.238h16.748v-4.78c0-14.892-13.144-17.238-22.622-17.238-11.944 0-21.698 3.99-23.473 15.195-.495 3.015-.57 5.77.156 9.22 2.917 13.977 26.758 18.04 30.23 26.874.63 1.667.438 3.787.13 5.085-.55 2.278-2.074 4.56-6.538 4.56-4.213 0-6.75-2.438-6.75-6.166l-.016-6.654H51.553V28.8c0 15.26 11.792 19.837 24.41 19.837 12.13 0 22.113-4.194 23.713-15.61.82-5.904.214-9.792-.07-11.252C96.764 7.44 71.294 3.184 69.4-4.85zM146.3 28.32c.014.878-.015 1.893-.158 2.637-.337 1.72-1.788 4.97-6.5 4.97-4.696 0-6.163-3.25-6.5-4.97-.147-.744-.178-1.76-.175-2.637v-51.12h-17.13V26.74c-.024 1.276.098 3.875.156 4.563 1.166 12.884 11.18 17.046 23.646 17.046 12.45 0 22.46-4.162 23.66-17.046.06-.688.193-3.287.173-4.563v-49.537h-17.177l.005 51.12zM281.178 7.467V17.59h6.943V27.6c.02.874-.015 1.834-.16 2.624-.3 1.86-2.03 5.002-6.92 5.002-4.903 0-6.622-3.142-6.938-5.002-.134-.8-.177-1.75-.155-2.624V-4c0-1.123.07-2.352.278-3.243.36-1.702 1.82-5.017 6.75-5.017 5.184 0 6.465 3.5 6.772 5.017.204.958.214 2.61.214 2.604v3.893h17.09v-2.308c-.006 0 .057-2.362-.14-4.52-1.256-13-11.79-17.09-23.797-17.09s-22.296 4.123-23.788 17.09c-.143 1.115-.295 3.3-.295 4.52l-.007 29.08c.007 1.3.05 2.26.235 4.563 1.12 12.587 11.846 17.093 23.842 17.093 12.006 0 22.732-4.506 23.858-17.093.184-2.302.21-3.263.21-4.563V7.467h-23.99z"/></svg>