<svg xmlns="http://www.w3.org/2000/svg" xmlns:xlink="http://www.w3.org/1999/xlink" height="640" viewBox="-56 0 480 480" width="640" xmlns:v="https://vecta.io/nano"><path d="M184 448c83.95 0 152-68.05 152-152s-68.05-152-152-152S32 212.05 32 296c.098 83.906 68.094 151.902 152 152zm0-288c75.1 0 136 60.9 136 136s-60.9 136-136 136S48 371.1 48 296c.082-75.074 60.926-135.918 136-136zm0 264a127.7 127.7 0 0 0 107.953-59.266v-.04l.047-.062c.125-.277.238-.566.328-.855.355-.63.625-1.3.8-2a57.32 57.32 0 0 0 0-3.066c-.176-.7-.445-1.37-.8-2a7.6 7.6 0 0 0-.344-.801C284.68 345.04 280 321.535 280 296s4.68-49.04 11.93-59.87c.13-.262.242-.527.344-.8.355-.63.625-1.3.797-2a52.1 52.1 0 0 0 0-3.062c-.172-.703-.44-1.375-.797-2a8.46 8.46 0 0 0-.328-.859l-.05-.062v-.04c-32.973-51.844-98.133-72.945-155.238-50.27s-90.045 82.72-78.478 143.06S122.56 424.05 184 424zm0-240c36.652-.027 70.98 17.938 91.855 48.063-8.635 20.17-12.687 42.01-11.855 63.937-.832 21.926 3.22 43.766 11.855 63.938-30.36 43.668-87.246 59.96-136.12 38.988S63.473 325.5 74.2 273.406 130.816 183.953 184 184zm0 0"/><use xlink:href="#B"/><path d="M96 32H32a8 8 0 0 0-8 8v48a8 8 0 0 0 8 8h64a8 8 0 0 0 8-8V40a8 8 0 0 0-8-8zm-8 48H40V48h48zm0 0"/><use xlink:href="#B" x="80"/><path d="M336 32h-64a8 8 0 0 0-8 8v48a8 8 0 0 0 8 8h64a8 8 0 0 0 8-8V40a8 8 0 0 0-8-8zm-8 48h-48V48h48zm16-80H24C10.746 0 0 10.746 0 24v432c0 13.254 10.746 24 24 24h320c13.254 0 24-10.746 24-24V24c0-13.254-10.746-24-24-24zM16 24a8 8 0 0 1 8-8h320a8 8 0 0 1 8 8v88H16zm336 432a8 8 0 0 1-8 8H24a8 8 0 0 1-8-8V128h336zm-64-176v32a8 8 0 1 0 16 0v-32a8 8 0 1 0-16 0zm0 0"/><defs ><path id="B" d="M144 32c-17.672 0-32 14.328-32 32s14.328 32 32 32 32-14.328 32-32-14.328-32-32-32zm0 48c-8.836 0-16-7.164-16-16s7.164-16 16-16 16 7.164 16 16-7.164 16-16 16zm0 0"/></defs></svg>