<svg xmlns="http://www.w3.org/2000/svg" width="500" height="500" xmlns:v="https://vecta.io/nano"><linearGradient id="A" gradientUnits="userSpaceOnUse" x1="312.255" y1="261.828" x2="317.236" y2="304.587"><stop offset="0" stop-color="#325d98"/><stop offset="1" stop-color="#317ec0"/></linearGradient><path fill="url(#A)" d="M334.158 262.418l-8.278 26.71s-12.96 15.84-26.35 7.92c-13.318-7.92-3.6-31.748 8.28-34.63h26.35z"/><path d="M102.5 232.613c-1.872 10.224-8.28 11.663-8.28 11.663h-6.9l5.472-20.878h5.47s6.2-.936 4.248 9.287v-.072zm-4.03-19.005H82.044L71.1 254.932h22.533s20.445-1.225 23.254-21.598c2.88-20.446-18.502-19.726-18.502-19.726h.072zm27.354 1.224l-6.9 26.133s-4.248 14.04 15.2 14.04 22.534-13.535 22.534-13.535l7.63-26.564h-13.534l-6.912 24.908s-1.15 5.688-7.342 5.473-2.16-10.295-2.16-10.295l5.903-20.086h-14.47l.073-.073zm64 12.31c-2.16 5.327-10.584 4.248-10.584 4.248l1.873-8.567s10.87-1.08 8.7 4.247v.072zm7.847 7.127c3.24-3.023 5.183-7.27 4.535-12.3s-6.335-6.982-11.087-7.127c-4.75-.216-19.87 0-19.87 0l-11.375 40.1h13.03l4.104-16.56s2.735 1.296 3.887 4.248 1.008 12.3 16.414 12.3h2.448s-5.544-13.967-8.136-16.56 2.737-1.08 6.048-4.103zm14.1-19.438l-8.28 32.684s-3.455 8.063 6.407 8.063h24.333l2.952-10.583-20.302.145 1.8-6.264 16.414.145 2.16-9.503-16.414.36 1.512-5.328 17.7.36 3.455-10.006h-31.676l-.072-.072zm34.413.936l9.503 17.494-18.214 21.67h16.053l6.624-10.15 4.608 10.15h15.693l-10.726-20.6 16.054-18.574h-16.342l-5.255 8.423-4.176-9.36z" fill="#3457a1"/><path d="M126.462 279.265c-.936.432-2.52.792-4.68.792-4.68 0-7.847-2.808-7.847-7.487 0-4.032 1.8-7.127 4.464-8.927 1.87-1.225 3.96-1.872 6.48-1.872 1.944 0 3.385.433 3.9.72l-1.08 3.096c-.504-.287-1.656-.576-3.24-.576-1.512 0-2.95.504-4.03 1.368-1.44 1.224-2.447 3.24-2.447 5.76 0 2.8 1.584 4.752 4.68 4.752 1.296 0 2.52-.216 3.384-.576l.288 3.023.142-.072zm6.768-2.16c2.016 0 3.24-3.024 3.24-5.184 0-1.225-.504-2.448-2.017-2.448-2.16 0-3.312 3.167-3.312 5.1 0 1.512.792 2.52 2.016 2.52h.073zm-.503 2.88c-3.312 0-5.47-2.16-5.47-5.327 0-4.464 3.095-8.136 7.703-8.136 3.455 0 5.47 2.377 5.47 5.328 0 4.68-3.24 8.135-7.63 8.135h0-.072zm7.557-.29l1.656-8.64.648-4.176h3.3l-.215 2.16h.07c1.224-1.655 2.808-2.447 4.464-2.447 2.088 0 3.312 1.296 3.312 3.527 0 .576-.072 1.512-.216 2.16l-1.44 7.487h-3.816l1.368-7.128c.07-.432.144-.936.144-1.44 0-.936-.287-1.584-1.295-1.584-1.225 0-2.664 1.584-3.24 4.393l-1.08 5.687h-3.673zm20.736-16.27l-.648 3.456h2.736l-.576 2.88h-2.736l-.863 4.32c-.072.504-.217 1.15-.217 1.655 0 .648.3 1.08 1.08 1.08.3 0 .72 0 1.008-.072l-.432 2.952c-.504.216-1.44.288-2.23.288-2.304 0-3.384-1.152-3.384-2.808 0-.647.072-1.368.288-2.376l.937-5.1h-1.656l.504-2.88h1.656l.504-2.448 3.887-1.08.143.144zm5.326 1.728c-1.08 0-1.944-.792-1.944-1.943 0-1.368 1.08-2.305 2.305-2.305 1.15 0 2.016.793 2.016 1.944-.001 1.44-1.08 2.304-2.377 2.304h0zm-4.75 14.542l2.447-12.814h3.744l-2.448 12.814h-3.743zm15.26-10.006c-.288-.144-.863-.216-1.367-.216-2.305 0-3.9 2.52-3.9 4.968 0 1.295.576 2.23 1.73 2.23 1.224 0 2.447-1.368 2.88-3.527l.648-3.456zM168 281.496c.72.432 2.232.72 3.385.72 1.87 0 3.3-.864 3.814-3.385l.217-1.08h-.072c-1.008 1.296-2.16 1.943-3.672 1.943-2.52 0-4.104-2.087-4.104-4.607 0-4.247 3.023-8.423 8.64-8.423a13.63 13.63 0 0 1 4.752.863l-1.943 10.584c-.432 2.375-1.152 4.463-2.736 5.687-1.367 1.08-3.24 1.44-4.967 1.44s-3.313-.288-4.176-.793l.863-2.88v-.072zm18.935-4.39c2.017 0 3.24-3.024 3.24-5.184 0-1.225-.504-2.448-2.016-2.448-2.16 0-3.312 3.167-3.312 5.1 0 1.512.792 2.52 2.016 2.52h.072zm-.504 2.88c-3.3 0-5.47-2.16-5.47-5.327 0-4.464 3.096-8.136 7.703-8.136 3.455 0 5.47 2.377 5.47 5.328 0 4.68-3.238 8.135-7.63 8.135h0-.072zm15.047-3.672c.72.36 2.16.864 3.384.864 1.08 0 1.583-.504 1.583-1.15s-.432-1.08-1.583-1.656c-1.44-.72-2.735-1.8-2.735-3.384 0-2.663 2.303-4.464 5.615-4.464 1.512 0 2.664.3 3.3.648l-.863 2.664c-.504-.217-1.44-.576-2.592-.576-1.008 0-1.656.432-1.656 1.152 0 .504.504 1.008 1.584 1.44 1.44.72 2.88 1.728 2.88 3.527 0 2.95-2.52 4.535-5.904 4.535-1.584 0-3.168-.432-3.887-1.008l.936-2.664-.074.074zm13.894-11.16c-1.08 0-1.943-.792-1.943-1.943 0-1.368 1.08-2.305 2.303-2.305 1.152 0 2.016.793 2.016 1.944-.001 1.44-1.08 2.304-2.376 2.304h0zm-4.752 14.542l2.448-12.814h3.743l-2.447 12.814h-3.744zm14.4-9.296c0-.648-.504-1.08-1.367-1.08-1.73 0-2.736 1.44-3.023 2.663 2.95 0 4.4-.36 4.4-1.583h0zm1.943 8.567c-1.512.792-3.383 1.008-4.75 1.008-3.672 0-5.544-2.088-5.544-5.47 0-3.9 2.808-7.992 7.487-7.992 2.592 0 4.463 1.44 4.463 3.9 0 3.24-3.168 4.463-8.35 4.318a2.94 2.94 0 0 0 .36 1.297c.504.647 1.367 1.008 2.447 1.008 1.367 0 2.592-.3 3.6-.793l.288 2.736zm1.15.73l1.584-8.64.648-4.176h3.24l-.216 2.088h.072c1.15-1.655 2.735-2.376 4.4-2.376 2.016 0 2.952 1.296 3.023 2.447 1.152-1.655 2.736-2.447 4.464-2.447 1.944 0 3.096 1.296 3.096 3.456 0 .504-.07 1.583-.216 2.23l-1.367 7.487h-3.672l1.295-6.983c.072-.504.217-1.08.217-1.584 0-.863-.36-1.512-1.296-1.512-1.296 0-2.52 1.656-3.024 4.248l-1.08 5.83H235.6l1.368-7.056.144-1.44c0-.863-.288-1.584-1.224-1.584-1.296 0-2.592 1.8-3.096 4.32l-1.08 5.76h-3.672l.073-.07zm24.838-3.166c.432.36.936.576 1.727.576 2.017 0 3.6-2.88 3.6-5.4 0-1.008-.432-2.088-1.655-2.088-1.44 0-2.735 1.584-3.24 4.104l-.504 2.8h.07zm-5.4 8.35l2.52-13.103.72-5.04h3.383l-.215 1.943h.072c1.08-1.367 2.6-2.16 4.104-2.16 2.807 0 4.175 2.232 4.175 4.896 0 4.463-2.952 8.566-7.487 8.566-1.008 0-1.943-.288-2.375-.504h-.072l-1.008 5.472h-3.816v-.07zm14.543-5.184l1.44-7.63c.36-1.944.504-4.104.648-5.184h3.24l-.216 2.664h.072c.863-1.728 2.303-2.952 4.104-2.952h.72l-.72 3.672h-.576c-2.376 0-3.527 2.16-4.03 4.68l-.864 4.75h-3.815zM279.3 270.4c0-.648-.504-1.08-1.368-1.08-1.728 0-2.735 1.44-3.023 2.663 2.95 0 4.4-.36 4.4-1.583h0zm1.943 8.567c-1.512.792-3.384 1.008-4.75 1.008-3.672 0-5.543-2.088-5.543-5.47 0-3.9 2.807-7.992 7.486-7.992 2.592 0 4.464 1.44 4.464 3.9 0 3.24-3.168 4.463-8.35 4.318a2.95 2.95 0 0 0 .359 1.297c.504.647 1.367 1.008 2.447 1.008 1.368 0 2.592-.3 3.6-.793l.3 2.736z" fill="#3262aa"/><linearGradient id="B" gradientUnits="userSpaceOnUse" x1="334.583" y1="255.251" x2="296.927" y2="198.538"><stop offset="0" stop-color="#ea3561"/><stop offset=".29" stop-color="#ea3561"/><stop offset="1" stop-color="#ed76ad"/></linearGradient><path fill="url(#B)" d="M335.6 254.932l6.84-27.86s2.52-24.55-23.11-21.31-38.588 45.93-8.64 49.098h24.9v.072z"/><linearGradient id="C" gradientUnits="userSpaceOnUse" x1="345.406" y1="218.023" x2="429.604" y2="218.023"><stop offset="0" stop-color="#325d98"/><stop offset="1" stop-color="#317ec0"/></linearGradient><path fill="url(#C)" d="M346.037 252.412h0l12.24-44.42s4.104-8.423 12.814-15.838h0l3.888-3.024 1.512-1.008c.288-.144.504-.36.792-.504h0c.36-.216.647-.432 1.008-.576h0l4.104-2.087c.433-.216.937-.432 1.368-.576h0c.144-.072.36-.144.504-.216h0c.504-.216 1.08-.432 1.584-.576h0c.072 0 .216-.072.287-.072h0c.29-.072.576-.216.864-.288h0l1.008-.288c.864-.288 1.8-.504 2.664-.72h0c.504-.072.936-.216 1.44-.288h.072c.144 0 .36-.072.504-.072h0c.144 0 .288-.072.504-.072.216-.072.504-.072.72-.145h.072c.216 0 .504-.072.72-.072h.072c.288 0 .575-.072.864-.072h0c.504-.072.936-.072 1.44-.072h3.24l2.303.216 1.943.288c.145 0 .36.072.504.072h0a21.84 21.84 0 0 1 2.088.504h0c1.297.36 2.52.792 3.744 1.296h0l3.24 1.583 1.8 1.08c.072.072.217.144.29.216h0c.07.072.215.144.287.216h0l1.08.792a2.19 2.19 0 0 0 .504.36h0l1.296 1.08c1.008.936 2.016 1.944 2.88 2.952h0l1.08 1.368c.07.144.215.288.287.36h0a11 11 0 0 1 .793 1.152h0c.07.072.143.216.215.288h0c.648 1.08 1.297 2.232 1.8 3.384h0l.07.216a12.71 12.71 0 0 1 .864 2.304h0c0 .072.072.216.072.288h0c.215.576.36 1.08.504 1.656v.072l.287 1.224c0 .144.072.288.072.432h0c0 .144.072.288.072.504h0l.216 1.152c0 .216.07.504.07.72v.072l.217 2.304v3.023c0 .432-.072.864-.072 1.296h0v.144l-.216 1.655v.145c0 .216-.07.36-.07.576h0v.072l-.217 1.08c0 .144-.072.287-.072.504h0c0 .144-.072.287-.072.432h0c0 .144-.07.287-.07.36h0v.072c-.144.504-.216 1.008-.36 1.584h0l-.216.648c-.144.432-.288.863-.36 1.295h0l-.07.288-.072.288c-.07.288-.216.504-.288.792h0v.07l-.072.29-.575 1.512c-.072.216-.216.432-.288.647h0l-.36.792-2.017 4.104a30.68 30.68 0 0 1-.864 1.584h0a29.95 29.95 0 0 1-1.223 2.016h0c-.072.072-.145.216-.217.288h0c-.36.647-.79 1.224-1.224 1.8h0c-.072.072-.144.216-.216.287h0l-1.08 1.513-1.08 1.368a4.04 4.04 0 0 1-.504.575h0c-.432.576-.936 1.08-1.367 1.584h0l-.072.072a43.96 43.96 0 0 1-2.592 2.591h0l-.072.072-.863.793-2.088 1.727-1.08.793-1.8 1.224c-.36.216-.647.432-1.008.575h0a32.58 32.58 0 0 1-3.528 1.801h0c-1.727.79-3.31 1.295-4.68 1.728h0c-3.312.936-5.472.936-5.472.936h-47.227l.72-2.52.143.36z"/><linearGradient id="D" gradientUnits="userSpaceOnUse" x1="287.302" y1="232.797" x2="341.891" y2="232.797"><stop offset="0" stop-color="#ea3468"/><stop offset="1" stop-color="#ed76ad"/></linearGradient><path fill="url(#D)" d="M333.87 253.78l5.832-23.686s2.16-20.877-19.654-18.07c-21.742 2.735-32.828 39.09-7.344 41.755h21.166z"/><linearGradient id="E" gradientUnits="userSpaceOnUse" x1="415.41" y1="186.918" x2="360.847" y2="256.532"><stop offset="0" stop-color="#325d98"/><stop offset="1" stop-color="#317ec0"/></linearGradient><path fill="url(#E)" d="M347.55 253.78l11.015-39.955s9.215-19.006 29.732-22.4 38.3 15.55 27.572 38.948-28.22 23.396-28.22 23.396H347.55z"/><linearGradient id="F" gradientUnits="userSpaceOnUse" x1="291.442" y1="278.968" x2="332.229" y2="278.968"><stop offset="0" stop-color="#325d98"/><stop offset="1" stop-color="#317ec0"/></linearGradient><path fill="url(#F)" d="M332.143 263.282l-7.056 22.678s-11.014 13.462-22.39 6.767c-11.375-6.767-3.096-26.996 7.055-29.444h22.4z"/><linearGradient id="G" gradientUnits="userSpaceOnUse" x1="330.265" y1="287.256" x2="396.505" y2="287.256"><stop offset="0" stop-color="#ea3468"/><stop offset="1" stop-color="#ed76ad"/></linearGradient><path fill="url(#G)" d="M344.093 263.282l-7.127 24.55s-6.768 23.9 23.613 23.324c30.38-.647 35.852-45.354 8.28-47.802h-24.766v-.072z"/></svg>