<svg xmlns="http://www.w3.org/2000/svg" width="500" height="500" xmlns:v="https://vecta.io/nano"><path fill="#1d9cd8" d="M250.004 372.616c-67.603 0-122.626-54.69-122.626-122.62 0-67.588 55.023-122.61 122.626-122.61 67.584 0 122.618 55.022 122.618 122.6 0 67.932-55.034 122.622-122.618 122.622zm0-239.47c-64.54 0-116.854 52.32-116.854 116.85S185.463 366.84 250.004 366.84c64.53 0 116.834-52.3 116.834-116.845 0-64.193-52.3-116.85-116.834-116.85zm103.91 151.803l-.635.135-.356-.443c.022-.194 4.117-12.28 4.082-26.158-.048-14.945-6.12-24.113-13.93-24.113-4.754 0-8.15 3.407-8.15 8.492 0 9.173 11.21 9.854 11.21 29.896 0 8.152-1.693 15.946-4.416 24.45-12.568 42.447-52.655 62.146-91.704 62.146-18.01 0-30.802-3.693-34.6-5.406-.154-.077-.29-.375-.167-.676l.494-.348c1.544.613 12.53 4.06 26.123 4.06 14.945 0 23.775-6.11 23.775-13.594 0-4.735-3.74-8.476-8.5-8.476-9.173 0-9.848 11.544-29.548 11.544-8.492 0-15.95-1.694-24.8-4.415-42.122-12.9-62.196-52.652-62.163-92.05.017-19.188 5.4-34.46 5.48-34.615l.61-.1.36.443c-.5 1.583-4.066 12.546-4.066 26.124 0 14.945 6.11 23.773 13.92 23.773 4.423 0 8.165-3.396 8.165-8.153 0-9.173-11.218-10.188-11.218-29.89 0-8.492 1.7-15.965 4.417-24.796 12.912-42.11 52.652-61.857 91.716-62.158 18.153-.14 34.04 5.297 34.638 5.772l.105.615-.45.338c-.186-.022-10.51-4.343-26.145-4.343-14.605-.004-23.775 6.11-23.775 13.928 0 4.415 3.396 8.153 8.492 8.153 9.173 0 9.855-11.21 29.547-11.21 8.493 0 15.962 1.693 24.8 4.42 42.456 12.9 61.808 52.99 62.153 91.705.195 19.835-5.402 34.845-5.457 34.95zm-58.397-29.172c-11.542 0-20.384 8.497-20.384 18.682 0 8.49 5.1 15.276 11.896 15.276 2.382 0 4.75-1.362 4.75-4.416 0-4.41-5.854-5.49-5.398-12.092.286-4.36 4.392-7.268 8.457-7.268 8.155 0 11.966 7.904 11.966 16.048-.344 12.567-9.584 21.315-20.452 21.315-14.278 0-23.433-13.59-23.433-28.2 0-21.74 14.26-30.234 21.732-32.27.075-.005 19.532 3.474 18.93-5.102-.267-3.768-5.88-5.22-9.95-5.384-4.503-.18-9.047 1.445-9.047 1.445-2.376-1.196-4.016-3.536-5.023-6.245 13.928-10.53 23.77-20.717 23.77-32.267 0-6.116-4.082-11.555-11.896-11.555-13.926 0-24.455 17.665-24.455 33.63 0 2.714 0 5.434.687 7.82-8.84 6.45-15.4 10.456-27.3 17.59 0-1.49.313-5.318 1.306-10.298 4.08-4.42 9.674-11.03 9.674-16.127 0-2.376-1.352-4.414-4.083-4.414-6.783 0-11.888 10.2-13.238 17.32-3.06 3.74-9.17 8.505-14.27 8.505-4.076 0-5.43-3.744-5.777-5.097 12.906-4.42 28.877-22.087 28.877-38.05 0-3.396-1.358-10.867-11.553-10.867-15.287 0-28.194 22.76-28.194 40.414-5.436 0-7.474-5.77-7.474-10.18s1.695-8.836 1.695-10.188c0-1.37-.68-3.063-2.712-3.063-5.104 0-8.162 6.79-8.162 14.606.35 10.874 7.48 17.666 16.99 18.348 1.352 6.453 7.128 12.563 14.257 12.563 4.423 0 9.855-1.356 13.596-4.747l-1.02 6.448c-14.95 7.814-25.817 13.25-35.668 22.074-7.8 7.13-12.21 16.635-12.21 24.106 0 10.188 6.457 19.7 19.703 19.7 15.628 0 27.52-12.57 33.285-29.893 2.73-8.146 3.813-20.01 4.494-30.883 15.62-8.83 23.03-13.94 31.174-19.727 1.016 1.695 2.052 3.063 3.41 4.078-7.142 3.74-24.114 14.27-24.114 39.063 0 17.666 11.896 37.36 35.318 37.36 19.366 0 32.612-15.96 32.612-31.236-.01-13.923-7.827-26.83-22.767-26.83zm-93.412 47.547c-5.09.232-8.48-3.024-8.48-8.454 0-14.602 20.24-28.54 35.53-36.02-2.72 20.382-9.6 43.677-27.05 44.475zm11.21-80.157c0-11.21 11.063-32.522 17.825-30.27 7.984 2.66-6.617 24.153-17.825 30.27zm64.198-5.102c0-13.922 9.43-27.47 14.58-24.896 5.867 2.943-4.38 16.066-14.58 24.896z"/></svg>