<svg xmlns="http://www.w3.org/2000/svg" xmlns:xlink="http://www.w3.org/1999/xlink" height="640" viewBox="-48 0 480 480" width="640" xmlns:v="https://vecta.io/nano"><path d="M368 97.473V24c0-13.254-10.746-24-24-24H40C26.746 0 16 10.746 16 24v73.473C6.445 100.852.043 109.867 0 120v16c.043 10.133 6.445 19.148 16 22.527v249.535c.035 13.207 10.73 23.902 23.938 23.938H40v24c0 13.254 10.746 24 24 24h256c13.254 0 24-10.746 24-24v-24h.063c13.207-.035 23.902-10.73 23.938-23.937V158.527c9.555-3.38 15.957-12.395 16-22.527v-16c-.043-10.133-6.445-19.148-16-22.527zM32 24a8 8 0 0 1 8-8h304a8 8 0 0 1 8 8v72H32zm296 432a8 8 0 0 1-8 8H64a8 8 0 0 1-8-8v-24h272zm24-47.937c-.004 4.383-3.555 7.934-7.937 7.938H39.938c-4.383-.004-7.934-3.555-7.937-7.937V160h320zM368 136a8 8 0 0 1-8 8H24a8 8 0 0 1-8-8v-16a8 8 0 0 1 8-8h336a8 8 0 0 1 8 8zM264 408h16a8 8 0 1 0 0-16h-16a8 8 0 1 0 0 16zm0 0"/><path d="M312 408h24a8 8 0 0 0 8-8v-24a8 8 0 1 0-16 0v16h-16a8 8 0 1 0 0 16zM224 32h-64a8 8 0 0 0-8 8v32a8 8 0 0 0 8 8h64a8 8 0 0 0 8-8V40a8 8 0 0 0-8-8zm-8 32h-48V48h48zm0 0"/><use xlink:href="#B"/><use xlink:href="#B" x="-56"/><use xlink:href="#B" x="144"/><use xlink:href="#B" x="200"/><defs ><path id="B" d="M120 32c-13.254 0-24 10.746-24 24s10.746 24 24 24 24-10.746 24-24-10.746-24-24-24zm0 32a8 8 0 1 1 0-16 8 8 0 1 1 0 16zm0 0"/></defs></svg>