<svg xmlns="http://www.w3.org/2000/svg" width="500" height="500" viewBox="-148 -238 500 500" xmlns:v="https://vecta.io/nano"><path fill="#2d2e2c" d="M205.354 12.902v25.405h9.105v-50.73h-9.104v25.325m-181.86 3.95h13.234v9.497c-3.17 2.32-7.614 3.842-12.497 3.842-10.58 0-17.612-7.682-17.612-18.115v-.152c0-9.708 7.25-17.895 16.792-17.895 6.588 0 10.5 2.1 14.502 5.434l5.772-6.748c-5.317-4.4-10.88-6.875-19.895-6.875C8.172-14.16-2.927-2.13-2.927 12.076v.146c0 14.782 10.66 26.088 26.857 26.088 9.178 0 16.5-3.624 21.612-7.9V9.095H23.495v7.76"/><g transform="translate(0 .719)"><defs><filter id="A" filterUnits="userSpaceOnUse" x="-134.606" y="-13.14" width="463.391" height="50.73"><feColorMatrix values="1 0 0 0 0 0 1 0 0 0 0 0 1 0 0 0 0 0 1 0"/></filter></defs><mask maskUnits="userSpaceOnUse" x="-134.606" y="-13.14" width="463.391" height="50.73" id="B"><g filter="url(#A)"><path fill="#fff" d="M-134.504 37.59v-50.73h463.29v50.73h-463.29z"/></g></mask><path mask="url(#B)" fill="#2d2e2c" d="M299.477 29.617V16h29.3V8.016h-29.3V-5.17h29.3v-7.97h-38.4V37.6h38.4v-7.974h-29.31m-434.083 7.975h9.1V16.936h29.442v-8.1h-29.442V-5.026h29.46v-8.114h-38.56v50.73"/></g><path fill="#2d2e2c" d="M-74.38 12.723V-4.31h13.25c6.732 0 10.728 2.97 10.728 8.41v.144c0 5.144-4.143 8.478-10.654 8.478l-13.325.001zm20.873 6.38c7.25-2.03 12.357-7.03 12.357-15.366v-.146c0-4.426-1.555-8.188-4.292-10.946-3.328-3.18-8.44-5.066-14.944-5.066h-23.09V38.3h9.098V20.625h11.396l12.73 17.685h10.73l-13.985-19.206zm27.35-7.045v26.25h9.1v-50.73h-9.1v24.48m87.997.843v25.405h9.104v-50.73H61.84v25.325m64.837.186c0 9.926-7.11 17.093-17.973 17.093H98.487v-34.5h10.216c10.863 0 17.973 7.32 17.973 17.244v.153zm-17.973-25.51H89.378v50.73h19.325c16.27 0 27.53-11.092 27.53-25.37v-.143c0-14.274-11.26-25.216-27.53-25.216zM242.03 12.723V-4.31h13.246c6.73 0 10.73 2.97 10.73 8.41v.144c0 5.144-4.148 8.478-10.658 8.478l-13.317.001zm20.865 6.38c7.25-2.03 12.355-7.03 12.355-15.366v-.146c0-4.426-1.56-8.188-4.29-10.946-3.332-3.18-8.44-5.066-14.945-5.066H232.93V38.3h9.1V20.625h11.393L266.15 38.3h10.734l-13.987-19.206zM139.893 38.308h54.838l-27.412-52.7-27.426 52.7"/><path fill="#dc3e54" d="M153.7 30.167L167.258 3.47l13.666 26.697H153.7"/><path fill="#2d2e2c" d="M334.857 34.344c.514 0 .818-.24.818-.632v-.018c0-.414-.305-.635-.818-.635h-1.03v1.287h1.03v-.002zm-1.822-1.983h1.85c.553 0 .98.16 1.262.442a1.09 1.09 0 0 1 .34.849v.02c0 .655-.395 1.063-.963 1.224l1.117 1.536h-.94l-1-1.4h-.863v1.4h-.793l-.001-4.07zm5.156 2.148v-.023c0-1.917-1.525-3.477-3.545-3.477-2.027 0-3.56 1.577-3.56 3.5v.02c0 1.923 1.52 3.477 3.54 3.477 2.03 0 3.567-1.576 3.567-3.498h0zm-7.525.02v-.02c0-2.116 1.758-3.887 3.98-3.887s3.96 1.747 3.96 3.863v.023c0 2.115-1.756 3.885-3.982 3.885s-3.957-1.747-3.957-3.863z"/></svg>