<svg xmlns="http://www.w3.org/2000/svg" width="500" height="500" viewBox="-150 -150 500 500" fill="#000745" xmlns:v="https://vecta.io/nano"><path d="M-138.862 153.857h109.638V44.14h-109.638v109.718zM-68.557 52.58C-49.2 58.95-35.197 77.34-35.117 99c.08 21.336-13.694 39.73-33.44 46.498V52.58zm-15.447-2.547c3.503 0 7.246.477 10.35 1.115 0 24.84-24.045 45.303-48.807 45.303h-10.35c1.67-25.478 22.7-46.418 48.807-46.418m-38.456 51.594c24.762 0 48.807 20.462 48.807 45.225-3.104.637-7.005 1.115-10.35 1.115-26.116 0-47.85-21.02-48.887-46.34h10.43zm130.02 7.005v-6.926H30.4v-8.84H7.56v-12.82h24.283V71.3h-33.6v36.946c0 9.312 3.98 15.763 13.297 17.037.158.08.397.08.557.08h.16c.956.078 1.912.16 2.946.16H32.48v-8.76h-17.2c-2.946 0-7.722-1.433-7.722-8.12M39.1 96.928v28.664h9.395v-54.3H39.1zm36.138-11.863c-11.783 0-20.622 8.12-20.622 20.78v.32c0 12.343 8.518 20.3 20.86 20.3 5.97 0 11.465-1.67 16.56-7.007l-5.653-5.492c-2.946 2.947-5.892 4.54-10.67 4.54-6.925 0-11.544-4.062-11.862-10.354h30.653c.16-1.6.16-3.265.16-3.265.08-10.986-7.645-19.823-19.43-19.823m-11.068 16.64c.398-4.778 5.255-8.6 11.067-8.6 5.495 0 9.952 3.9 9.952 8.6H64.17zm56.854-8.28c4.217 0 7.326 1.6 10.03 4.3l5.813-6.052c-4.54-4.855-9.953-6.767-15.766-6.767-11.865 0-21.417 8.837-21.417 20.86s9.552 20.862 21.417 20.862c5.893 0 11.227-1.993 15.766-6.77l-5.813-6.054c-2.63 2.708-5.814 4.3-10.03 4.3-6.85 0-12.104-5.253-12.104-12.34-.077-7.086 5.175-12.34 12.104-12.34M152 108.632h0V94.778h8.523v-8.52H152V71.2h-9.3v38.06c.238 8.836 4.3 14.808 13.295 16.082.16.078.398.078.557.078h.16c.953.08 1.9.16 2.945.16h.955v-8.758h-.955c-2.945-.08-7.646-1.514-7.646-8.202m25.552-16.48v-5.8h-9.238v39.252h9.238v-20.62c0-6.45 4.137-10.5 10.586-10.5a18.44 18.44 0 0 1 3.902.398v-9c-.398-.08-1.752-.238-2.785-.238-5.574-.08-9.795 2.468-11.703 6.53m37.34-7.007c-11.94 0-21.416 8.996-21.416 20.78s9.475 20.782 21.416 20.782c11.865 0 21.416-9.075 21.416-20.782s-9.55-20.78-21.416-20.78m0 33.124c-6.928 0-12.182-5.415-12.182-12.345 0-6.924 5.254-12.34 12.182-12.34 6.846 0 12.182 5.335 12.182 12.34-.001 6.93-5.337 12.345-12.182 12.345m27.15-22.296v29.62h9.396v-54.3h-9.396zM285.12 109.1c0 6.2-3.662 8.92-8.598 8.92s-8.6-2.63-8.6-8.842v-22.93h-9.398v23.726c0 11.23 8.203 16.562 17.916 16.562 9.795 0 18.074-5.413 18.074-16.8V86.258h-9.395V109.1zm44.823 3.9l-5.888-8.2 7.244-9.955 6.3-8.518h-10.194l-8.52 11.785-8.598-11.785h-10.115l13.537 18.55-8.04 11.306-6.767 9.397h10.03l9.95-13.853 9.953 13.853h10.03z"/></svg>