<svg xmlns="http://www.w3.org/2000/svg" width="500" height="500" xmlns:v="https://vecta.io/nano"><linearGradient id="A" gradientUnits="userSpaceOnUse" x1="22.49" y1="260.179" x2="477.511" y2="260.179"><stop offset="0" stop-color="#fff"/><stop offset=".08" stop-color="#f9f9f9"/><stop offset=".182" stop-color="#eaeaea"/><stop offset=".296" stop-color="#cfcfcf"/><stop offset=".418" stop-color="#ababab"/><stop offset=".533" stop-color="#828282"/><stop offset=".566" stop-color="#919292"/><stop offset=".641" stop-color="#b0b0b1"/><stop offset=".72" stop-color="#c8c8c9"/><stop offset=".803" stop-color="#d9dada"/><stop offset=".892" stop-color="#e3e4e5"/><stop offset="1" stop-color="#e6e7e8"/></linearGradient><g fill-rule="evenodd" stroke="#000" stroke-miterlimit="10"><path fill="url(#A)" stroke-width="8.54" d="M31.27 272.51c-13.68-5.563-9.146-17.97-1.424-21.43 35.538-15.92 160.702-51.63 213.36-69.54 3.298-1.12 10.95-1.265 15.23.345 43.862 16.5 196.186 60.855 211.953 67.303 8.46 3.458 11.413 17.008-2.63 21.918-37.813 13.215-172.712 57.98-204.78 67.805-3.544 1.086-19.163 1.11-25.417-.644-38.466-10.803-177.207-53.928-206.29-65.757z"/><g stroke-width="1.601"><path d="M324.193 226.233h11.263l-4.102 22.688s2.032-2.47 6.888-3.64c12.625-3.026 20.823 8.788 20.085 21.068-1.34 22.15-27.016 28.916-33.436 15.475-.13 1.1-.887 5.735-.887 5.735l-9.9-.292 10.1-61.035zm4.75 39.8c-1.804 12.984 17.333 16.597 19.735 0 1.9-13.12-17.134-18.733-19.735 0zM160.015 232.6c-1.03 5.362-3.163 20.074-3.163 20.074l15.458-.204 3.178-19.78 12.35.077-7.545 53.163-13.786.076 3-19h-15.863l-2.867 19.655h-12.913s5.408-36.675 8.984-53.982c4.16-.13 9.042-.292 13.157-.1zm62.435 17.963l1.07-3.976 8.62.02s-4.455 26.1-5.612 40.664H215.3l.56-3.332c-2.403 1.828-4.845 4.044-8.423 4.666-30.898 5.362-22.38-51.87 8.987-42.653 1.918.833 4.7 2.866 6.026 4.612zm-22.868 19.38c.47 4.746 5.295 7.922 9.543 7.33 5.907-.824 12.576-11.415 6.82-18.418-7-8.535-17.258 2.064-16.364 11.088z"/><path d="M272.95 261.74l-11.075.1s-1.52-5.8-5.574-5.923c-15.3-.463-18.584 21.42-5.313 21.363 4.054-.018 8.983-6 8.983-6l11.533-.278S266.86 286 252.92 287.47c-12.575 1.336-20.873-5.4-20.78-17.676.106-13.77 11.724-25.073 26.145-24.512 13.726.538 14.664 16.46 14.664 16.46zm40.5 7.586h-28.294c-.222 12.34 14.696 7.962 15.628 4.446l9.9.1c-4.1 17.437-37.37 20.593-36.5-4.536.57-16.27 13.984-24.803 21.35-24.803 23.65 0 17.905 24.803 17.905 24.803zm-25.722-7.58l16.18-.052c.928-8.887-13.346-9.393-16.18.052z"/></g></g></svg>