<svg xmlns="http://www.w3.org/2000/svg" width="500" height="500" xmlns:v="https://vecta.io/nano"><path fill="#fff" d="M33.32 186.773c-13.265 0-24.056 10.44-24.056 23.27v79.914c0 12.83 10.79 23.268 24.056 23.268h433.36c13.264 0 24.056-10.438 24.056-23.268v-79.914c0-12.832-10.792-23.27-24.056-23.27H33.32"/><path fill="#1c4f9c" d="M484.496 289.96c0 9.406-7.976 17.025-17.814 17.025H33.32c-9.84 0-17.815-7.62-17.815-17.025v-79.914c0-9.406 7.976-17.03 17.815-17.03h433.36c9.84 0 17.814 7.625 17.814 17.03l.002 79.914"/><path fill="#40c1e6" d="M75.656 207.098c-1.708-2.636-3.892-2.127-5.217 0l-6.942 9.596c-1.435 1.98-4.585 3.29-7 2.9l-11.69-1.874c-3.203-.662-4.254 1.165-3.69 3.688l1.872 11.692c.4 2.416-.918 5.568-2.9 7.002l-9.594 6.94c-2.56 1.794-2.163 3.88 0 5.217l9.594 6.943c1.98 1.436 3.29 4.585 2.9 7.004l-1.874 11.69c-.59 2.908 1.13 4.174 3.69 3.69l11.69-1.878c2.416-.386 5.566.92 7 2.903l6.942 9.595c1.572 2.374 3.848 2.004 5.217 0l6.94-9.595c1.436-1.984 4.587-3.29 7.004-2.903l11.692 1.878c3.018.652 4.23-1.346 3.688-3.69l-1.876-11.69c-.387-2.42.92-5.568 2.9-7.004l9.596-6.943c2.396-1.402 2.082-3.843 0-5.217l-9.596-6.94c-1.98-1.434-3.288-4.586-2.9-7.002l1.876-11.692c.6-3.128-1.158-4.218-3.688-3.688L89.6 219.593c-2.417.388-5.568-.918-7.004-2.9l-6.94-9.596"/><path fill="#fff" d="M49.814 262.505c1.05-2.212.025-4.7-2.282-5.5l-16.45-5.85c-2.305-.82-2.305-2.164 0-2.982l16.45-5.852c2.308-.82 3.333-3.297 2.282-5.51l-7.496-15.77c-1.05-2.21-.1-3.16 2.108-2.107l15.77 7.498c2.212 1.048 4.692.02 5.51-2.284l5.854-16.45c.82-2.308 2.16-2.308 2.98 0l5.848 16.45c.82 2.306 3.302 3.33 5.513 2.282l15.77-7.496c2.208-1.05 3.157-.102 2.105 2.107l-7.493 15.77c-1.048 2.214-.024 4.69 2.282 5.51l16.453 5.852c2.306.82 2.306 2.162 0 2.982l-16.453 5.85a3.94 3.94 0 0 0-2.282 5.51l7.494 15.767c1.052 2.213.103 3.162-2.105 2.108l-15.77-7.494c-2.21-1.05-4.69-.024-5.513 2.282l-5.852 16.45c-.817 2.306-2.158 2.306-2.978 0l-5.854-16.45c-.832-2.354-3.3-3.333-5.51-2.282l-15.77 7.497c-2.21 1.05-3.157.102-2.108-2.11l7.496-15.768"/><path d="M75.656 207.098c-1.434-1.98-1.937-1.72-1.115.588l5.848 16.45c.933 2.33 2.24 2.387 3.154.176s.5-5.64-.945-7.62l-6.942-9.594m29.326 14.31c.4-2.415-.154-2.585-1.207-.375L96.28 236.8c-1.006 2.377-.104 3.27 2.104 2.356s4.334-3.64 4.72-6.057l1.876-11.692m-6.595 38.74c-2.2-.916-2.116-2.213.178-3.153l16.453-5.85c2.306-.82 2.304-.025.586 1.116l-9.597 6.943c-1.98 1.436-5.412 1.86-7.62.945M85.9 272.886c-2.324-1.02-3.27-.104-2.358 2.103.915 2.213 3.642 4.336 6.06 4.722l11.692 1.878c2.156.4 2.584-.154.376-1.208l-15.77-7.495M63.502 282.6c-1.438-1.98-1.865-5.408-.95-7.62.916-2.205 2.225-2.105 3.152.18l5.812 16.363c.82 2.306.26 2.514-1.177.532l-6.836-9.455m-22.37-4.803c-.386 2.418.192 2.545 1.25.336l7.43-15.643c1-2.262.106-3.268-2.103-2.352s-4.333 3.64-4.72 6.06l-1.855 11.6m-10.64-30.764c-1.938 1.5-1.673 1.92.633 1.095l16.366-5.826c2.302-.83 2.4-2.244.213-3.146s-5.597-.53-7.58.907l-9.632 6.97m14.3-29.324c-2.42-.388-2.587.154-.378 1.205l15.77 7.498c2.385.996 3.272.102 2.356-2.107s-3.64-4.334-6.056-4.72l-11.7-1.875" fill="#0f80cc"/><path d="M185.728 241.598c-3.105-2.088-5.937-2.72-12.974-2.72h-5.2c-7 0-9.895.632-12.933 2.72-3.063 2.2-4.596 5.54-4.596 10.252v20.77h12.05v-21.827c0-3.385 1.8-4.724 6.204-4.724h3.75c4.412 0 6.223 1.338 6.223 4.724v21.827h12.05v-20.77c0-4.7-1.553-8.05-4.58-10.252m232.462-.208c-3.064-2.1-5.944-2.703-12.96-2.703h-1.102c-5.916 0-8.893.44-11.5 1.832-2.644-1.393-5.6-1.832-11.523-1.832h-1.108c-6.998 0-9.882.603-12.94 2.703-3.068 2.22-4.572 5.54-4.572 10.256v20.8h12.03v-21.822c0-3.37 1.766-4.68 6.032-4.7 4.3.03 6.063 1.34 6.063 4.7v21.822h12.042v-21.822c0-3.37 1.74-4.68 6.044-4.7 4.285.03 6.03 1.34 6.03 4.7v21.822h12.044v-20.8c0-4.715-1.547-8.038-4.58-10.256m-170.478 28.546c3.056 2.06 5.933 2.685 12.952 2.685h5.18c7.017 0 9.88-.626 12.938-2.685 3.06-2.226 4.586-5.56 4.586-10.262v-20.796h-12.056v21.815c0 3.42-1.775 4.713-6.18 4.713h-3.773c-4.408 0-6.213-1.292-6.213-4.713v-21.815H243.1v20.796c-.001 4.702 1.528 8.036 4.597 10.262m-42.64-13.978c0-5.886 4.203-9.42 11.206-9.42h8.75v15.54c-.46 2.373-2.452 3.736-5.524 3.803h-3.225c-6.893-.001-11.206-3.764-11.206-9.923h0zm31.995-16.625v-12.5h-12.04v12.5h-11.37c-5.453 0-9.685.972-12.94 2.903-5.275 3.17-7.883 7.758-7.883 13.723 0 5.463 2.05 9.677 6.216 12.805 4.3 3.278 8.605 4.3 17.23 4.3h3.337c7.023 0 9.9-.64 12.97-2.7 3.036-2.238 4.568-5.56 4.568-10.28v-20.77l-.088-.002m-107.128-12.905h12.773v46.193h-12.773v-46.193m182.912 19.825v-7.313l-4.78-.063h-1.113c-7.008 0-9.896.632-12.94 2.72-3.073 2.202-4.584 5.54-4.584 10.254v20.77h12.038v-21.827c0-3.372 1.776-4.7 6.157-4.724l5.223.184m40.555-4.283c-3.038-2.06-5.928-2.723-12.9-2.723v.023h-3.34c-8.64 0-12.962 1.055-17.258 4.32-4.14 3.12-6.203 7.326-6.203 12.787 0 5.995 2.6 10.536 7.924 13.725 3.213 1.95 7.44 2.928 12.917 2.928h8.003v-7.215h-5.383c-7.023 0-11.264-3.524-11.264-9.438 0-6.14 4.326-9.896 11.264-9.896h3.212c3.07.057 5.085 1.427 5.52 3.785v22.805h12.002v-.047H358v-20.8c-.001-4.717-1.502-8.036-4.6-10.255m112.167.001c-3.096-2.06-5.936-2.723-12.964-2.723v.023h-3.324c-8.635 0-12.95 1.055-17.263 4.32-4.16 3.12-6.192 7.326-6.192 12.787 0 5.995 2.58 10.536 7.916 13.725 3.217 1.95 7.44 2.928 12.922 2.928h8v-7.215h-5.383c-7.004 0-11.245-3.524-11.245-9.438 0-6.14 4.32-9.896 11.245-9.896h3.206c3.063.057 5.088 1.427 5.54 3.785v22.805H470v-.047h.118v-20.8c.001-4.717-1.542-8.036-4.562-10.255" fill="#fff"/></svg>