<svg xmlns="http://www.w3.org/2000/svg" width="500" height="500" viewBox="-120.667 -120.667 500 500" xmlns:v="https://vecta.io/nano"><path fill="#c4094f" d="M52.608 199.106c38.534 0 69.774-31.238 69.774-69.772s-31.24-69.77-69.774-69.77-69.773 31.237-69.773 69.77 31.238 69.773 69.773 69.773"/><path d="M69.598 153.885h-14.45V99.28H49.8v60h5.357v-.04h14.45v-5.356m36.055-22.318h-35.98V126.2h41.25l.08 3.124c0 32.26-26.15 58.4-58.407 58.4S-5.8 161.593-5.8 129.334s26.15-58.407 58.408-58.407a57.92 57.92 0 0 1 2.542.056l-.007 5.317a57.62 57.62 0 0 0-2.535-.059c-29.322 0-53.093 23.772-53.093 53.093s23.77 53.095 53.093 53.095c28.524 0 51.792-22.492 53.042-50.705l.012-.158m-74.84-16.122c4.53 0 8.204-3.67 8.204-8.205a8.21 8.21 0 0 0-8.204-8.207 8.21 8.21 0 0 0-8.208 8.207c0 4.534 3.674 8.205 8.208 8.205" fill="#fff"/><path d="M157.027 163.582h49.854v-15.058h-31.545V94.6h-18.3v68.973m110.096-64.12c-5.717-4.43-13.076-6.675-21.857-6.675-10.434 0-19.145 3.202-25.203 9.257-6.326 6.325-9.672 15.646-9.672 26.953 0 12.077 3.543 22.267 9.967 28.692 5.04 5.04 11.77 7.707 19.457 7.707 16.885 0 20.77-10.122 20.77-10.122v8.305h15.248v-38.957h-30.354v12.2h13.97s.135 15.344-14.28 15.344c-3.662 0-6.93-1.33-9.44-3.84-3.9-3.907-5.975-10.492-5.975-19.03 0-14.146 5.62-22.588 15.03-22.588 5.88 0 10.3 3.6 11.432 9.083h19.42c-1-7.95-3.188-12.094-8.513-16.317" fill="#7b7979"/></svg>