<svg xmlns="http://www.w3.org/2000/svg" height="642.667" viewBox="0 -1 482.542 482" width="642.667" xmlns:v="https://vecta.io/nano"><path d="M440 280.27a8 8 0 0 0 8-8v-24c13.23-.06 23.938-10.77 24-24 0-13.254-10.746-24-24-24v-29.062a64.7 64.7 0 0 0 34.52-58.937c0-35.285-25.13-64-56-64s-56 28.715-56 64c-.473 22.594 10.652 43.855 29.48 56.344v31.656h-48v-192a8 8 0 0 0-8-8h-32a8 8 0 0 0-8 8v192a24.12 24.12 0 0 0-24 24c0 13.258 10.746 24 24 24v72c-13.254 0-24 10.746-24 24s10.746 24 24 24v56a8 8 0 0 0 8 8h32a8 8 0 0 0 8-8v-56h64v8c-.055 48.582-39.422 87.95-88 88h-64a87.87 87.87 0 0 1-81.922-56H200c22.082-.023 39.973-17.918 40-40v-288c-.027-22.078-17.918-39.973-40-40H40c-22.082.027-39.973 17.922-40 40v288c.027 22.082 17.918 39.977 40 40h125.105c13.832 42.93 53.793 72.023 98.895 72h64c57.4-.066 103.934-46.6 104-104v-8h16c13.254 0 24-10.742 24-24s-10.746-24-24-24h-16v-40zm-424 88v-288c0-13.254 10.746-24 24-24h160c13.254 0 24 10.746 24 24v288c0 13.258-10.746 24-24 24H40c-13.254 0-24-10.742-24-24zm416-104h-16v-89.176a19.8 19.8 0 0 0 3.2.594 45.42 45.42 0 0 0 7.344.574c1.824 0 3.648-.113 5.457-.344zm24-40a7.81 7.81 0 0 1-2.457 5.707A7.67 7.67 0 0 1 448 232.27v-16a8 8 0 0 1 8 8zM385.367 99.816c4.578-20.45 20.16-35.547 38.633-35.547s34.055 15.098 38.633 35.547a47.95 47.95 0 0 0-77.266 0zM392 128.27a32.01 32.01 0 0 1 62.817-8.559 32.01 32.01 0 0 1-18.055 37.97c-.277.13-.543.273-.8.43a12.56 12.56 0 0 1-1.664.547l-.387.1-.3.074-2.984.8c-.586.145-1.18.242-1.777.293a30.31 30.31 0 0 1-3.434.336 37.33 37.33 0 0 1-4.168-.398c-.492-.05-.984-.145-1.46-.28l-2.8-.72h-.152l-3.457-1.3a7.92 7.92 0 0 0-3.305-.465A32.19 32.19 0 0 1 392 128.27zm-72-112h16v184h-16zm-24 208a7.81 7.81 0 0 1 2.457-5.703A7.69 7.69 0 0 1 304 216.27h96v16h-96a8 8 0 0 1-8-8zm24 24h16v72h-16zm16 168h-16v-48h16zm-32-64a8 8 0 1 1 0-16h112v16zm144-16a8 8 0 1 1 0 16h-16v-16zm-32-16h-64v-72h48v24a8 8 0 0 0 8 8h8zm-248-248H72a8 8 0 0 0-8 8v144a8 8 0 0 0 8 8h96a8 8 0 0 0 8-8v-144a8 8 0 0 0-8-8zm-8 144H80v-128h80zm0 72c0-22.1-17.9-40-40-40s-40 17.9-40 40 17.9 40 40 40c22.082-.023 39.973-17.918 40-40zm-40 24a23.95 23.95 0 0 1-8-46.528v14.527a8 8 0 1 0 16 0v-14.527a23.95 23.95 0 0 1 15.645 26.641c-1.98 11.508-11.97 19.9-23.645 19.887zm-16 48H72a8 8 0 1 0 0 16h32a8 8 0 1 0 0-16zm0 0"/><path d="M168 360.27h-32a8 8 0 1 0 0 16h32a8 8 0 1 0 0-16zm-48-152c17.672 0 32-14.324 32-32s-14.328-32-32-32-32 14.328-32 32 14.328 32 32 32zm0-48c7.238-.03 13.6 4.816 15.47 11.8a15.94 15.94 0 0 1-7.47 17.967v-5.777a8 8 0 1 0-16 0v5.777a15.94 15.94 0 0 1-7.469-17.969 15.95 15.95 0 0 1 15.47-11.81zm0 0"/></svg>