<svg xmlns="http://www.w3.org/2000/svg" image-rendering="optimizeQuality" shape-rendering="geometricPrecision" width="500" height="500" viewBox="-108.268 -193.642 500 500" xmlns:v="https://vecta.io/nano"><path fill="#0183a5" d="M179.3 14.09h-18.035V96.54H179.3v-5.743c3.9 4.585 9.392 7.394 16.116 7.394 14.043 0 25.428-12.244 25.428-27.348s-11.385-27.348-25.428-27.348c-6.725 0-12.217 2.81-16.116 7.394v-36.8z"/><circle fill="#fff" cx="190.428" cy="70.903" r="11.729"/><path fill="#0183a5" d="M283.465 74.31h-38.21s-.596 6.848 4.366 9.826 13.1 1.786 15.582-3.077h17.367s-4.268 17.566-25.506 17.566-29.972-13.796-29.972-27.987 9.13-26.598 28.78-26.598 27.49 13.1 27.59 30.27h0z"/><path fill="#fff" d="M266.594 63.792h-20.94s.992-8.14 10.32-8.14 10.62 8.14 10.62 8.14z"/><path d="M0 45.998h17.992v6.698c1.887-2.87 6.766-8.378 16.432-8.378 13.074 0 17.272 9.956 17.272 9.956s4.198-9.716 17.032-9.716S86.12 52.235 86.12 62.43v35.023H68.25V70.466s1.318-11.635-7.917-11.635-8.275 12.835-8.275 12.835v25.668H34.184v-25.8s1.2-13.193-8.517-13.193c-5.026 0-6.97 4.463-7.676 8.77v30.213H0V45.998zm135.256-.898h18.035v51.866h-18.035v-5.743c-3.9 4.585-9.392 7.394-16.116 7.394-14.044 0-25.428-12.243-25.428-27.347s11.384-27.35 25.428-27.35c6.725 0 12.217 2.8 16.116 7.394V45.1z" fill="#0183a5"/><path fill="#fff" d="M124.116 59.6a11.73 11.73 0 0 1 11.729 11.729 11.73 11.73 0 0 1-11.729 11.729 11.73 11.73 0 0 1-11.729-11.729 11.73 11.73 0 0 1 11.729-11.729h0z"/></svg>